<svg id="Layer_1" data-name="Layer 1" xmlns="http://www.w3.org/2000/svg" xmlns:xlink="http://www.w3.org/1999/xlink" viewBox="0 0 320.62 130.84"><defs><clipPath id="clip-path"><path d="M47.05,19.37c-7,2.87-28.54,11.23-32,18.16C11,45.68,15.1,98.13,20.15,106a5.83,5.83,0,0,0,.89,1.35c6.9,7.38,61.23,19.9,69.16,17.16a5.71,5.71,0,0,0,1.4-.79c8.13-4.54,36.31-49,36.52-58.11C128.33,56,92.44,13.17,83.17,9.73a7.53,7.53,0,0,0-2.23-.56c-6.47-.89-27.68,7.64-33.89,10.2M45.83,66.83a7.55,7.55,0,0,0,3.29-2.78l5.09-7.18,3.37,24.6a3,3,0,0,0,3,2.69h8.26a3.43,3.43,0,0,0,3.34-2.34l9.66-23.26-3.6,25.6h9.41l1.59-11.3a15.22,15.22,0,0,0,0-3.39h2.19l6.08,14.69h10.16l-6.53-13.79a7.47,7.47,0,0,0-2.49-3.29l0-.25A7.55,7.55,0,0,0,102,64.05L112.14,49.8H101.63L92.47,63.2H90.23a16,16,0,0,0,.85-3.64l1.39-9.76H75.65L67.19,73.11a28.85,28.85,0,0,0-1.25,4.18H64.65a40.77,40.77,0,0,0-.1-4.28L62.66,49.8H48.72L39.56,63.2H37.32a15.45,15.45,0,0,0,.84-3.64l1.4-9.76H30.15L25.32,84.16h9.41l1.59-11.3a15.22,15.22,0,0,0,0-3.39h2.19l6.08,14.69H54.8L48.27,70.37a7.47,7.47,0,0,0-2.49-3.29ZM69.71.13a9.13,9.13,0,0,0-2.61,0c-7.37.8-28.4,16-34.53,20.5C25.68,25.69,4.2,40.79,2.27,49.37,0,59.46,18.89,116.1,26.6,123.35a6.86,6.86,0,0,0,1.34,1.26c9.62,6.23,72.88,5.18,80.87,0a6.49,6.49,0,0,0,1.33-1.25c7.72-7.23,26.61-63.91,24.34-74C132.09,38.73,80.87,1.39,69.71.13Z" fill="none" clip-rule="evenodd"/></clipPath><linearGradient id="linear-gradient" x1="18.67" y1="8.57" x2="115.18" y2="118.95" gradientUnits="userSpaceOnUse"><stop offset="0" stop-color="#00a2df"/><stop offset="1" stop-color="#141f78"/></linearGradient></defs><g clip-path="url(#clip-path)"><rect width="136.75" height="130.84" fill="url(#linear-gradient)"/></g><path d="M272.51,88.78l-2.45,10h6.32l-2.42-10Zm-7.35,17.08L270,86.09h6.38l4.91,19.77h-3.24L277,101.62h-7.59l-1.07,4.24Zm-8.57,2v-2.83a3.5,3.5,0,0,0,2.09-.46,2.7,2.7,0,0,0,.56-2.05V86.09h3.18l0,16.71c0,2.06-.43,3.42-1.29,4.1S258.76,107.91,256.59,107.91Zm-5.95-2V86.09h3.2v19.77ZM241,98.3V95.47h5.63v10a23.69,23.69,0,0,1-3.16.43c-1.59.16-2.73.24-3.45.24q-4.5,0-6.2-2.49c-1.14-1.65-1.7-4.24-1.7-7.77s.58-6.11,1.74-7.72,3.18-2.43,6-2.43a32.66,32.66,0,0,1,5.71.58l1,.2-.11,2.54a48,48,0,0,0-6.27-.46c-1.84,0-3.11.52-3.79,1.56s-1,3-1,5.77.32,4.75,1,5.81,1.95,1.61,3.91,1.61a14.2,14.2,0,0,0,3.15-.26V98.3Zm-23.8,7.56V86.09h12.46v2.8H220.4v5.6h7.53v2.77H220.4V103h9.26v2.83Zm-2.63,0H203.49V86.09h3.21V103h7.87ZM198,103.75q-1.78,2.43-6.25,2.43c-3,0-5.07-.82-6.26-2.44s-1.79-4.18-1.79-7.66.6-6.07,1.8-7.77,3.29-2.54,6.25-2.54,5,.85,6.23,2.53,1.79,4.27,1.79,7.78S199.18,102.14,198,103.75Zm-10-2.08q1,1.71,3.75,1.71c1.85,0,3.09-.56,3.74-1.68s1-3,1-5.61a12.43,12.43,0,0,0-1-5.73c-.67-1.19-1.9-1.79-3.71-1.79s-3.05.6-3.72,1.79a12.05,12.05,0,0,0-1,5.7C187,98.67,187.34,100.54,188,101.67Zm-16.74,4.19h-3.2V86.09h3.2V95l2.94-.23,4-8.69h3.67L177,96l5.08,9.84h-3.72l-4.19-8.25-2.94.2ZM312.91,53.49V50.2H316v3.29Zm-4.76,22.57V56.29h12.47v2.8h-9.27v5.6h7.53v2.77h-7.53v5.77h9.27v2.83Zm-19.79,0V56.29H294l6,16.94h.43V56.29h3.2V76.06h-5.48l-6.15-17h-.4v17Zm-7.77,0V56.29h3.21V76.06Zm-10.33-17h-4.12v5.65h4.24c1.88,0,2.83-1,2.83-2.91S272.23,59.06,270.26,59.06Zm.18,8.37h-4.3v5.85h4.35a3.63,3.63,0,0,0,2.38-.66,2.82,2.82,0,0,0,.8-2.28,2.57,2.57,0,0,0-.92-2.26A3.89,3.89,0,0,0,270.44,67.43Zm-7.51-11.14h7.51A7,7,0,0,1,275,57.52a4.75,4.75,0,0,1,1.5,3.91,5.69,5.69,0,0,1-.57,2.77,4.28,4.28,0,0,1-1.77,1.67c1.88.73,2.83,2.26,2.83,4.59q0,5.6-6.29,5.6h-7.74Zm-8.57,19.77h-3.23V67.92l-6.2-11.63h3.61l4.18,8.48,4.21-8.48h3.58l-6.15,11.63ZM229.15,59.15V56.29h14.42v2.86H238V76.06h-3.23V59.15Zm-8-.38q-3.66,0-3.66,2.57a2.08,2.08,0,0,0,.86,1.89,16.5,16.5,0,0,0,3.83,1.38,10.11,10.11,0,0,1,4.16,2,4.71,4.71,0,0,1,1.22,3.59,5.86,5.86,0,0,1-1.78,4.66A7.09,7.09,0,0,1,221,76.37a29.09,29.09,0,0,1-5.43-.57l-1-.21.32-2.56a49.65,49.65,0,0,0,5.95.51c2.38,0,3.58-1.05,3.58-3.17a2.1,2.1,0,0,0-.81-1.83,12.1,12.1,0,0,0-3.64-1.3,9.84,9.84,0,0,1-4.21-1.95,5,5,0,0,1-1.39-3.92,4.87,4.87,0,0,1,1.75-4.06,7.64,7.64,0,0,1,4.83-1.37,32.38,32.38,0,0,1,5.25.52l1,.18-.26,2.59A57.24,57.24,0,0,0,221.18,58.77Zm-8.42,17.29H201.67V56.29h3.21V73.2h7.88ZM190.05,59l-2.46,10h6.32l-2.42-10Zm-7.36,17.09,4.87-19.77h6.38l4.91,19.77h-3.23l-1.07-4.25H187l-1.07,4.25ZM179,56.29h3.35l-4.85,19.77H171.2l-4.84-19.77h3.34l3.93,16.94h1.44ZM299.87,29c-2.44,0-3.67.85-3.67,2.57a2.09,2.09,0,0,0,.87,1.89,17.05,17.05,0,0,0,3.82,1.38,10.1,10.1,0,0,1,4.17,2,4.73,4.73,0,0,1,1.21,3.6A5.87,5.87,0,0,1,304.5,45a7.09,7.09,0,0,1-4.83,1.54,28.25,28.25,0,0,1-5.43-.58l-1-.2.32-2.57a48,48,0,0,0,6,.52q3.57,0,3.57-3.17a2.12,2.12,0,0,0-.8-1.83,12.22,12.22,0,0,0-3.64-1.3,9.78,9.78,0,0,1-4.21-1.95A5,5,0,0,1,293,31.57a4.83,4.83,0,0,1,1.75-4.06,7.64,7.64,0,0,1,4.83-1.37,31.29,31.29,0,0,1,5.25.52l1,.17-.26,2.6C302.89,29.12,301,29,299.87,29Zm-11.3,15.18q-1.77,2.41-6.24,2.42c-3,0-5.07-.81-6.27-2.44s-1.79-4.18-1.79-7.66.61-6.07,1.81-7.76,3.28-2.54,6.25-2.54,5,.84,6.23,2.52,1.79,4.28,1.79,7.78S289.76,42.53,288.57,44.15Zm-10-2.08c.66,1.13,1.91,1.7,3.76,1.7s3.09-.56,3.73-1.67,1-3,1-5.62a12.24,12.24,0,0,0-1-5.72c-.66-1.2-1.9-1.79-3.7-1.79s-3.05.59-3.73,1.79a12.15,12.15,0,0,0-1,5.7A11.93,11.93,0,0,0,278.57,42.07Zm-10.5-6a11.19,11.19,0,0,0-.89-5.17c-.6-1.06-1.83-1.58-3.7-1.58h-3.63V43.42h3.63q2.86,0,3.81-2.1a8.17,8.17,0,0,0,.62-2.28A23,23,0,0,0,268.07,36Zm-4.59,10.21h-6.84V26.49h6.84q4.56,0,6.24,2.3T271.39,36a23.28,23.28,0,0,1-.33,4.25,9.56,9.56,0,0,1-1.17,3.16C268.79,45.32,266.66,46.25,263.48,46.25Zm-18-22.56V20.4h3.11v3.29Zm-4.76,22.56V26.49h12.46v2.8h-9.26v5.59h7.53v2.77h-7.53v5.77h9.26v2.83Zm-13.85-8.91h4q3.47,0,3.46-4.22a4.3,4.3,0,0,0-.84-2.94,3.34,3.34,0,0,0-2.62-.92h-4Zm4,2.77h-4v6.14h-3.21V26.49h7.25q6.72,0,6.72,6.63a7.3,7.3,0,0,1-1.69,5.2A6.59,6.59,0,0,1,230.88,40.11Zm-15,6.14V26.49h3.2V46.25ZM204.24,29.17l-2.45,10h6.32l-2.42-10Zm-7.36,17.08,4.88-19.76h6.38L213,46.25h-3.23L208.74,42h-7.58l-1.07,4.24Zm-.92,0H184.88V26.49h3.2V43.4H196Zm-24.7,0h-3.2V26.49h3.2V35.4l2.94-.23,4-8.68h3.67L177,36.41l5.08,9.84h-3.72L174.2,38l-2.94.2Z" fill="#141f78"/></svg>